<?xml version="1.0" standalone="no"?>
<!DOCTYPE svg PUBLIC "-//W3C//DTD SVG 20010904//EN"
 "http://www.w3.org/TR/2001/REC-SVG-20010904/DTD/svg10.dtd">
<svg version="1.0" xmlns="http://www.w3.org/2000/svg"
 width="700.000000pt" height="700.000000pt" viewBox="0 0 700.000000 700.000000"
 preserveAspectRatio="xMidYMid meet">
<metadata>
Created by potrace 1.11, written by Peter Selinger 2001-2013
</metadata>
<g transform="translate(0.000000,700.000000) scale(0.100000,-0.100000)"
fill="#000000" stroke="none">
<path d="M3285 6971 c-212 -75 -353 -136 -570 -246 -265 -135 -540 -298 -629
-374 -18 -15 -18 -15 -11 9 21 71 81 156 210 295 163 176 245 275 230 275 -10
0 -170 -97 -245 -149 -370 -255 -708 -554 -985 -871 -267 -306 -575 -707 -575
-748 0 -4 -5 -13 -12 -20 -15 -15 -38 -81 -38 -109 0 -57 155 -9 420 129 419
219 537 275 744 358 174 70 429 149 561 175 180 36 306 49 460 49 103 0 273
-12 286 -20 3 -2 19 -6 35 -8 64 -12 82 -17 164 -42 87 -27 270 -108 270 -119
0 -3 -9 -4 -20 0 -11 3 -32 8 -47 11 -16 2 -50 9 -78 14 -27 5 -75 12 -105 15
-30 4 -66 8 -80 10 -182 26 -646 26 -790 0 -14 -2 -45 -6 -70 -9 -197 -24
-462 -98 -650 -183 -86 -38 -230 -113 -282 -146 -31 -21 -61 -37 -66 -37 -6 0
-12 -7 -15 -14 -3 -8 -59 -54 -123 -102 -146 -109 -348 -308 -423 -416 -8 -13
-21 -29 -27 -36 -56 -56 -208 -302 -282 -453 -136 -279 -242 -655 -268 -944
-3 -33 -7 -78 -9 -100 -10 -100 -4 -403 10 -500 3 -16 7 -48 10 -70 5 -36 19
-114 32 -185 39 -216 148 -522 271 -765 209 -410 525 -783 877 -1037 213 -153
414 -256 684 -350 64 -22 123 -46 131 -53 19 -15 471 -146 555 -160 31 -6 83
-16 160 -31 55 -11 153 -13 450 -10 209 2 391 6 404 9 14 4 46 9 73 12 169 19
429 85 638 162 282 103 650 322 890 528 66 56 335 326 372 373 21 26 50 61 65
77 79 85 264 353 356 515 34 59 119 226 105 206 -35 -51 -59 -89 -94 -152 -21
-38 -40 -71 -44 -74 -3 -3 -21 -30 -40 -60 -19 -30 -37 -57 -40 -60 -3 -3 -21
-29 -39 -58 -19 -30 -39 -59 -45 -65 -6 -7 -38 -48 -71 -92 -60 -81 -77 -103
-169 -210 -67 -80 -297 -310 -365 -366 -29 -24 -58 -49 -65 -54 -80 -74 -317
-231 -486 -322 -166 -90 -506 -215 -647 -238 -47 -8 -41 2 10 15 294 76 622
222 877 389 290 191 599 490 803 779 248 352 443 766 552 1170 32 119 14 88
-30 -53 -21 -66 -42 -127 -47 -135 -4 -8 -30 -73 -58 -144 -262 -665 -658
-1186 -1171 -1540 -53 -36 -100 -66 -105 -66 -4 0 -15 -6 -23 -14 -32 -28
-276 -146 -401 -194 -151 -57 -388 -122 -505 -138 -27 -3 -52 -8 -55 -9 -5 -3
-62 -11 -155 -21 -77 -8 -239 -17 -330 -17 -98 0 -327 11 -362 17 -10 2 -47 7
-83 10 -36 4 -87 11 -115 16 -27 5 -66 12 -85 15 -19 4 -53 10 -75 15 -22 5
-53 11 -70 14 -16 3 -70 17 -120 31 -49 14 -100 28 -112 31 -69 14 -376 162
-546 263 -156 93 -353 249 -506 401 -128 127 -186 195 -329 385 -4 6 -30 46
-58 90 -166 259 -280 524 -353 820 -20 81 -24 102 -41 210 -30 187 -33 549 -6
690 2 11 7 40 11 65 14 92 65 280 100 376 42 113 126 285 180 371 62 96 166
233 179 233 6 -1 38 -8 71 -16 33 -9 78 -20 100 -25 110 -25 380 -104 595
-173 205 -67 256 -82 300 -90 19 -3 46 -8 60 -11 14 -3 45 -8 70 -11 25 -3 56
-7 70 -9 32 -6 338 -7 367 -1 12 3 50 7 85 10 64 6 94 11 138 22 14 4 129 8
255 10 127 2 239 6 250 8 11 2 26 5 33 5 24 2 -17 44 -158 162 -74 63 -142
121 -151 129 -16 15 -157 143 -213 192 -17 15 -28 28 -25 28 4 0 53 -21 110
-46 291 -129 407 -166 451 -143 15 8 24 7 36 -4 40 -35 155 -97 191 -103 29
-5 51 -1 83 14 112 53 561 262 563 262 2 0 47 21 102 46 561 263 885 361 1193
362 200 0 337 -35 470 -124 86 -56 156 -128 227 -231 81 -117 232 -323 237
-323 4 0 1 33 -9 75 -2 11 -7 43 -10 70 -10 77 -61 291 -90 380 -60 186 -219
455 -404 685 -109 134 -416 442 -546 546 -298 238 -546 379 -878 500 -26 9
-44 20 -40 24 4 3 62 30 128 59 66 30 124 57 129 61 4 5 -14 18 -40 30 -109
48 -234 83 -349 96 -33 3 -68 8 -78 10 -10 2 -45 6 -78 9 -33 4 -69 8 -80 10
-18 4 -153 15 -234 20 -22 2 -49 3 -59 4 -14 1 3 17 52 51 39 28 74 55 77 59
11 19 -149 44 -285 45 -77 0 -229 -9 -305 -19 -16 -2 -59 -7 -95 -10 -112 -12
-207 -24 -230 -30 -8 -3 -33 -7 -55 -10 -22 -4 -56 -10 -75 -16 -67 -17 -60
-8 58 80 155 116 164 130 57 92z"/>
</g>
</svg>
